Exact Audio Copy V0.99 prebeta 1 from 25. May 2007

EAC 抓取日志文件从18. 十一月 2010, 2:00

周璇 / 20世纪中华歌坛名人百集珍藏版

使用驱动器  ：BENQ    DVD-ROM 16X   Adapter: 0  ID: 1

读取模式     : 保护
使用精确流   : 是
废除音频缓冲 : 是
使用 C2 指针 : 否

读取偏移校正                   : 738
读取 Lead-In 和 Lead-Out       : 否
用静音填充抓取中丢失偏移的采样 : 是
去除首尾静音块                 : 否
已用接口                       : Win NT 及 2000 本地 Win32 接口

所用输出格式 : 内部 WAV 函数
样本格式     : 44.100 Hz;16 Bit;立体声


被抓轨 CD 的 TOC

     音轨 |   开始   |   长度   | 起始扇区 | 结尾扇区 
    --------------------------------------------------
       1  |  0:00.00 |  2:31.05 |       0  |   11329  
       2  |  2:31.05 |  2:09.17 |   11330  |   21021  
       3  |  4:40.22 |  2:35.13 |   21022  |   32659  
       4  |  7:15.35 |  2:59.42 |   32660  |   46126  
       5  | 10:15.02 |  2:18.60 |   46127  |   56536  
       6  | 12:33.62 |  2:57.25 |   56537  |   69836  
       7  | 15:31.12 |  3:16.18 |   69837  |   84554  
       8  | 18:47.30 |  3:10.15 |   84555  |   98819  
       9  | 21:57.45 |  2:37.52 |   98820  |  110646  
      10  | 24:35.22 |  3:06.55 |  110647  |  124651  
      11  | 27:42.02 |  3:14.13 |  124652  |  139214  
      12  | 30:56.15 |  2:59.65 |  139215  |  152704  
      13  | 33:56.05 |  3:02.27 |  152705  |  166381  
      14  | 36:58.32 |  2:16.28 |  166382  |  176609  
      15  | 39:14.60 |  3:10.12 |  176610  |  190871  
      16  | 42:24.72 |  2:55.10 |  190872  |  204006  
      17  | 45:20.07 |  2:48.00 |  204007  |  216606  
      18  | 48:08.07 |  2:47.58 |  216607  |  229189  


范围状态及错误

已选择范围

     文件名 E:\文件夹\20世纪中华歌坛名人百集珍藏版-周璇[lwg188原创]\周璇 - 20世纪中华歌坛名人百集珍藏版.wav

     峰值电平 100.0 %
     范围质量 100.0 %
     复制 CRC 9B145F77
     复制成功

没有错误发生

状态报告结尾
